<svg height="512" viewBox="0 0 45 59" width="512" xmlns="http://www.w3.org/2000/svg"><g id="015---Caddy" fill="none" transform="translate(0 -1)"><path id="Shape" d="m17 20c-.5522847 0-1-.4477153-1-1v-11c0-.55228475.4477153-1 1-1s1 .44771525 1 1v11c0 .5522847-.4477153 1-1 1z" fill="#7f8c8d"/><path id="Shape" d="m7 10.57c-.55228475 0-1-.4477153-1-1v-2.44c-.02253481-.8670002.32389954-1.70283878.95316237-2.29968504s1.48223939-.89863075 2.34683763-.83031496l6.91.74c1.045243.10969219 1.8272695 1.00967802 1.79 2.06v4.36c.0031062.5120317-.3810651.9436849-.89 1l-5.56.59z" fill="#95a5a5"/><path id="Shape" d="m21 20c-.5522847 0-1-.4477153-1-1v-14c0-.55228475.4477153-1 1-1s1 .44771525 1 1v14c0 .5522847-.4477153 1-1 1z" fill="#7f8c8d"/><path id="Shape" d="m26.82 9.78-5.93-.63c-.5089349-.05631511-.8931062-.48796825-.89-1v-4.35c-.0062125-1.0240635.7621301-1.88736979 1.78-2l6.91-.8c.8709791-.09154079 1.7384721.20208233 2.3747997.80380605.6363277.60172371.9779479 1.45146146.9352003 2.32619395v2.23c0 .55228475-.4477153 1-1 1z" fill="#95a5a5"/><path id="Shape" d="m13.35 20.14c-.4706972.0137136-.8871845-.3028167-1-.76l-1.95-8c-.1153202-.3579907-.020021-.7504121.2466466-1.0156374.2666677-.2652253.6596001-.3583948 1.0169601-.2411349.3573601.11726.6187045.4251164.6763933.7967723l1.95 8c.0656999.2904513-.0014655.5950724-.1832176.8309635-.1817522.235891-.4591793.3785071-.7567824.3890365z" fill="#a5a5a4"/><path id="Shape" d="m4.12 18c-1.43828637-.0186813-2.67740164-1.0182343-3-2.42l-.62-2.67c-.22291186-.8405033-.07770406-1.7361514.39934425-2.4631731.47704832-.7270216 1.24087947-1.21674885 2.10065575-1.3468269l6.88-.92c1.0402174-.14319846 2.0140543.54241763 2.23 1.57l1 4.23c.1215911.4993549-.1551357 1.0095701-.64 1.18-8.08 2.91-7.67 2.84-8.35 2.84z" fill="#d1d4d1"/><path id="Shape" d="m24.31 20.05c-.3125741.0091729-.611443-.1284007-.8077466-.3718172-.1963037-.2434165-.267438-.564647-.1922534-.8681828l2.7-11c.0732394-.35547926.3305614-.64488287.6750352-.75919528s.7237657-.03616685.995.205c.2712344.24116685.3932042.60871602.3199648.96419528l-2.71 11.05c-.1032213.4577145-.5107957.7821104-.98.78z" fill="#a5a5a4"/><path id="Shape" d="m34.29 14.82c-.69 0-.43 0-8.36-2.82-.4848643-.1704299-.7615911-.6806451-.64-1.18l1-4.23c.2072474-1.04887676 1.2027738-1.7492692 2.26-1.59l6.88.92c.8630702.11720018 1.6325983.60370777 2.108627 1.33310659.4760287.72939883.6115586 1.62967369.371373 2.46689341l-.65 2.67c-.3127077 1.3970337-1.538708 2.4001249-2.97 2.43z" fill="#d1d4d1"/><path id="Shape" d="m35.58 60c-.93 0 2.69 0-8.55 0-.5522847 0-1-.4477153-1-1s.4477153-1 1-1h7.97c1.69 0 3.3 0 4.54-.9 1.68-1.25 2.52-3.77 2.5-7.5 0-3.31-1.39-5.93-3.66-7-1.64-.76-3.55-1.15-5.18-2.43-4-3.12-5.77-10-6.35-15.06-.0662741-.5522847.3277153-1.0537258.88-1.12.5522847-.0662741 1.0537258.3277153 1.12.88.52 4.4 2.13 11 5.6 13.73 1.31 1 3.11 1.4 4.79 2.19 3 1.39 4.8 4.68 4.82 8.79 0 4.46-1.06 7.44-3.3 9.11-1.5294462 1.0085157-3.3549934 1.4701888-5.18 1.31z" fill="#7f8c8d"/><path id="Shape" d="m10 24h18c.5522847 0 1 .4477153 1 1v32c0 1.6568542-1.3431458 3-3 3h-14c-1.6568542 0-3-1.3431458-3-3v-32c0-.5522847.44771525-1 1-1z" fill="#3b97d3"/><path id="Shape" d="m7 38h2v16h-2c-1.65685425 0-3-1.3431458-3-3v-10c0-1.6568542 1.34314575-3 3-3z" fill="#285680"/><path id="Shape" d="m28 24h-18l1.32-3.11c.5163404-1.1637232 1.6769882-1.9073247 2.95-1.89h9.46c1.2910259-.0376926 2.4766089.7092247 3 1.89z" fill="#285680"/><g fill="#84b5cb"><path id="Shape" d="m13 31c-.5522847 0-1-.4477153-1-1v-2c0-.5522847.4477153-1 1-1s1 .4477153 1 1v2c0 .5522847-.4477153 1-1 1z"/><path id="Shape" d="m13 57c-.5522847 0-1-.4477153-1-1v-22c0-.5522847.4477153-1 1-1s1 .4477153 1 1v22c0 .5522847-.4477153 1-1 1z"/></g></g></svg>